<svg height="512" viewBox="0 0 512 512" width="512" xmlns="http://www.w3.org/2000/svg" xmlns:xlink="http://www.w3.org/1999/xlink"><linearGradient id="linear-gradient" gradientUnits="userSpaceOnUse" x1="363.515" x2="507.098" y1="476.485" y2="332.902"><stop offset="0" stop-color="#f7bf33"/><stop offset=".159" stop-color="#f7c13b"/><stop offset=".404" stop-color="#f8c851"/><stop offset=".703" stop-color="#f9d374"/><stop offset=".997" stop-color="#fbe09d"/></linearGradient><linearGradient id="linear-gradient-2" x1=".208" x2="153.179" xlink:href="#linear-gradient" y1="481.179" y2="328.208"/><linearGradient id="linear-gradient-3" gradientUnits="userSpaceOnUse" x1="80.9" x2="431.1" y1="481.87" y2="131.67"><stop offset="0" stop-color="#9ec645"/><stop offset=".267" stop-color="#9fc747"/><stop offset=".422" stop-color="#a4c950"/><stop offset=".548" stop-color="#abce5e"/><stop offset=".659" stop-color="#b5d472"/><stop offset=".759" stop-color="#c3db8c"/><stop offset=".851" stop-color="#d3e5ab"/><stop offset=".877" stop-color="#d8e8b5"/></linearGradient><linearGradient id="linear-gradient-4" gradientUnits="userSpaceOnUse" x1="143.13" x2="368.87" y1="295.13" y2="69.39"><stop offset="0" stop-color="#c5dd90"/><stop offset=".203" stop-color="#c8df97"/><stop offset=".489" stop-color="#d2e5a9"/><stop offset=".825" stop-color="#e2eec7"/><stop offset="1" stop-color="#ecf4da"/></linearGradient><linearGradient id="linear-gradient-5" gradientUnits="userSpaceOnUse" x1="219.515" x2="292.485" y1="284.485" y2="211.515"><stop offset="0" stop-color="#fad67c"/><stop offset=".224" stop-color="#fad881"/><stop offset=".498" stop-color="#fbdc90"/><stop offset=".796" stop-color="#fbe4a9"/><stop offset="1" stop-color="#fcebbe"/></linearGradient><g id="_04-backpack" data-name="04-backpack"><g id="gradient"><path d="m304 92a12 12 0 0 1 -12-12v-32a20.023 20.023 0 0 0 -20-20h-32a20.023 20.023 0 0 0 -20 20v32a12 12 0 0 1 -24 0v-32a44.049 44.049 0 0 1 44-44h32a44.049 44.049 0 0 1 44 44v32a12 12 0 0 1 -12 12z" fill="#f4995b"/><path d="m448 292h-48a12 12 0 0 0 -12 12v192a12 12 0 0 0 12 12h80a12 12 0 0 0 12-12v-160a44.049 44.049 0 0 0 -44-44z" fill="url(#linear-gradient)"/><path d="m112 292h-48a44.049 44.049 0 0 0 -44 44v160a12 12 0 0 0 12 12h80a12 12 0 0 0 12-12v-192a12 12 0 0 0 -12-12z" fill="url(#linear-gradient-2)"/><path d="m336 68h-160a76.086 76.086 0 0 0 -76 76v352a12 12 0 0 0 12 12h288a12 12 0 0 0 12-12v-352a76.086 76.086 0 0 0 -76-76z" fill="url(#linear-gradient-3)"/><path d="m336 68h-160a76 76 0 0 0 -76 76v108h312v-108a76 76 0 0 0 -76-76z" fill="url(#linear-gradient-4)"/><path d="m192 128h128v48h-128z" fill="#9ec645"/><path d="m320 188h-128a12 12 0 0 1 -12-12v-48a12 12 0 0 1 12-12h128a12 12 0 0 1 12 12v48a12 12 0 0 1 -12 12zm-116-24h104v-24h-104z" fill="#ecf4da"/><path d="m176 396a12 12 0 0 1 -12-12v-32a12 12 0 0 1 24 0v32a12 12 0 0 1 -12 12z" fill="#f9ccad"/><path d="m352 364h-192a12 12 0 0 1 0-24h192a12 12 0 0 1 0 24z" fill="#e7f1d1"/><rect fill="url(#linear-gradient-5)" height="72" rx="12" width="88" x="212" y="212"/></g></g></svg>