<svg width="379" height="56" viewBox="0 0 379 56" fill="none" xmlns="http://www.w3.org/2000/svg">
    <path d="M18.1055 1.77344C20.3841 1.77344 22.7083 1.88737 25.0781 2.11523C27.4707 2.32031 29.7949 2.69629 32.0508 3.24316C34.3066 3.76725 36.4258 4.50781 38.4082 5.46484C40.3906 6.39909 42.1224 7.59538 43.6035 9.05371C45.1074 10.4893 46.2923 12.221 47.1582 14.249C48.0241 16.2542 48.457 18.6126 48.457 21.3242C48.457 24.0814 48.0811 26.5081 47.3291 28.6045C46.5999 30.7008 45.5632 32.5238 44.2188 34.0732C42.8971 35.6227 41.3135 36.9215 39.4678 37.9697C37.6449 38.9951 35.6396 39.8268 33.4521 40.4648C31.2646 41.0801 28.9404 41.5244 26.4795 41.7979C24.0186 42.0485 21.5007 42.1738 18.9258 42.1738C17.3079 42.1738 15.7015 42.1283 14.1064 42.0371C12.5114 41.946 10.9049 41.832 9.28711 41.6953V53.9316H0.810547V3.75586C1.31185 3.59635 2.10938 3.40267 3.20312 3.1748C4.31966 2.94694 5.62988 2.73047 7.13379 2.52539C8.66048 2.32031 10.3581 2.14941 12.2266 2.0127C14.0951 1.85319 16.0547 1.77344 18.1055 1.77344ZM20.5664 9.29297C19.0625 9.29297 17.627 9.36133 16.2598 9.49805C14.8926 9.61198 13.6963 9.7487 12.6709 9.9082C11.4404 10.0905 10.3125 10.2956 9.28711 10.5234V33.9023C10.0163 34.0618 10.8252 34.1986 11.7139 34.3125C12.4658 34.4264 13.3431 34.529 14.3457 34.6201C15.3483 34.6885 16.4193 34.7227 17.5586 34.7227C19.0397 34.7227 20.6006 34.6885 22.2412 34.6201C23.9046 34.529 25.5452 34.3353 27.1631 34.0391C28.8037 33.7428 30.3532 33.3099 31.8115 32.7402C33.2926 32.1478 34.5915 31.373 35.708 30.416C36.8473 29.4362 37.7474 28.2285 38.4082 26.793C39.0918 25.3574 39.4336 23.6257 39.4336 21.5977C39.4336 19.9115 39.1602 18.4303 38.6133 17.1543C38.0664 15.8783 37.3258 14.7845 36.3916 13.873C35.4574 12.9616 34.3636 12.2096 33.1104 11.6172C31.8799 11.0247 30.5583 10.5576 29.1455 10.2158C27.7555 9.87402 26.32 9.63477 24.8389 9.49805C23.3805 9.36133 21.9564 9.29297 20.5664 9.29297ZM68.8965 9.9082C67.5521 10.0221 66.3216 10.1475 65.2051 10.2842C64.0885 10.3981 63.0176 10.5234 61.9922 10.6602V45.25C63.4961 45.4551 65.1595 45.6374 66.9824 45.7969C68.8053 45.9564 70.7878 46.0703 72.9297 46.1387C73.6133 46.1842 74.2855 46.207 74.9463 46.207C75.6071 46.207 76.2793 46.207 76.9629 46.207C77.6465 46.207 78.3301 46.207 79.0137 46.207C79.6973 46.207 80.3809 46.1842 81.0645 46.1387C83.6165 46.0703 85.8838 45.945 87.8662 45.7627C89.8714 45.5576 91.6829 45.2956 93.3008 44.9766C93.7109 42.7207 94.0527 39.9863 94.3262 36.7734H102.119C101.982 39.2116 101.789 41.7067 101.538 44.2588C101.287 46.7881 100.934 49.3971 100.479 52.0859C96.1491 52.8151 92.0247 53.305 88.1055 53.5557C84.209 53.8063 80.5404 53.9316 77.0996 53.9316C73.5677 53.9316 69.8307 53.8063 65.8887 53.5557C61.9466 53.305 57.8451 52.8151 53.584 52.0859V3.75586C56.2956 3.27734 58.916 2.92415 61.4453 2.69629C63.9974 2.44564 66.4811 2.25195 68.8965 2.11523V9.9082ZM131.514 0.611328C132.926 0.611328 134.362 0.75944 135.82 1.05566C137.279 1.3291 138.577 1.70508 139.717 2.18359C141.722 5.69271 143.545 9.27018 145.186 12.916C146.849 16.5391 148.33 20.276 149.629 24.127C150.518 24.2409 151.418 24.3662 152.329 24.5029C153.241 24.6169 154.163 24.7422 155.098 24.8789V33.6289L152.158 32.8086C152.979 36.2038 153.674 39.6673 154.243 43.1992C154.813 46.7311 155.234 50.3314 155.508 54H147.373C147.031 50.0807 146.462 46.207 145.664 42.3789C144.867 38.5508 143.955 34.8822 142.93 31.373C140.719 31.1908 138.612 31.054 136.606 30.9629C134.624 30.8717 132.926 30.8262 131.514 30.8262C129.622 30.8262 127.743 30.8604 125.874 30.9287C124.006 30.9971 122.126 31.1224 120.234 31.3047C119.209 34.8138 118.286 38.4824 117.466 42.3105C116.668 46.1387 116.11 50.0352 115.791 54H107.656C107.907 50.3314 108.306 46.7425 108.853 43.2334C109.422 39.7243 110.117 36.2721 110.938 32.877L108.271 33.6289V24.8789L113.535 24.127C114.811 20.276 116.27 16.5391 117.91 12.916C119.574 9.27018 121.419 5.69271 123.447 2.18359C124.587 1.70508 125.874 1.3291 127.31 1.05566C128.745 0.75944 130.146 0.611328 131.514 0.611328ZM131.514 23.1016C132.881 23.1016 134.294 23.1243 135.752 23.1699C137.21 23.1927 138.714 23.2611 140.264 23.375C139.102 20.2077 137.951 17.4619 136.812 15.1377C135.695 12.7907 134.727 10.9792 133.906 9.70312C133.496 9.52083 133.109 9.39551 132.744 9.32715C132.38 9.25879 131.969 9.22461 131.514 9.22461C130.785 9.22461 130.033 9.38411 129.258 9.70312C128.438 10.9792 127.458 12.7907 126.318 15.1377C125.179 17.4619 124.04 20.2077 122.9 23.375C124.404 23.2611 125.874 23.1927 127.31 23.1699C128.768 23.1243 130.169 23.1016 131.514 23.1016ZM176.152 2.32031C175.879 4.37109 175.742 6.51302 175.742 8.74609C175.742 11.7767 175.959 14.887 176.392 18.0771C176.825 21.2673 177.485 24.3548 178.374 27.3398C179.263 30.3249 180.379 33.1162 181.724 35.7139C183.091 38.3115 184.697 40.5104 186.543 42.3105C188.434 40.237 190.052 37.89 191.396 35.2695C192.764 32.6491 193.88 29.9033 194.746 27.0322C195.612 24.1611 196.25 21.2217 196.66 18.2139C197.07 15.1833 197.275 12.2096 197.275 9.29297C197.275 8.0625 197.241 6.86621 197.173 5.7041C197.127 4.54199 197.048 3.39128 196.934 2.25195C198.916 2.3431 200.693 2.47982 202.266 2.66211C203.861 2.8444 205.228 3.02669 206.367 3.20898C207.689 3.43685 208.874 3.66471 209.922 3.89258V12.5059C209.193 12.2552 208.475 12.0615 207.769 11.9248C207.062 11.7653 206.344 11.5944 205.615 11.4121C205.615 16.3112 205.137 20.8571 204.18 25.0498C203.245 29.2197 201.935 33.1162 200.249 36.7393C198.563 40.3623 196.546 43.7233 194.199 46.8223C191.875 49.9212 189.323 52.8151 186.543 55.5039C183.74 52.8151 181.177 49.9212 178.853 46.8223C176.551 43.7233 174.58 40.3623 172.939 36.7393C171.299 33.1162 170.023 29.2197 169.111 25.0498C168.2 20.8571 167.744 16.3112 167.744 11.4121C166.924 11.5944 166.138 11.7653 165.386 11.9248C164.634 12.0615 163.893 12.2552 163.164 12.5059V3.82422C163.164 3.84701 163.46 3.80143 164.053 3.6875C164.668 3.57357 165.534 3.43685 166.65 3.27734C167.79 3.09505 169.157 2.92415 170.752 2.76465C172.347 2.58236 174.147 2.43424 176.152 2.32031ZM241.504 1.97852C245.036 1.97852 248.761 2.10384 252.681 2.35449C256.6 2.60514 260.69 3.09505 264.951 3.82422V12.5059C263.424 12.0729 261.681 11.6628 259.722 11.2754C258.035 10.9564 256.007 10.6488 253.638 10.3525C251.268 10.0563 248.59 9.86263 245.605 9.77148V46.207C248.59 46.1159 251.268 45.9222 253.638 45.626C256.007 45.3298 258.035 45.0221 259.722 44.7031C261.681 44.3158 263.424 43.9056 264.951 43.4727V52.1543C260.69 52.8835 256.6 53.3734 252.681 53.624C248.761 53.8747 245.036 54 241.504 54C238.063 54 234.383 53.8747 230.464 53.624C226.545 53.3734 222.432 52.8835 218.125 52.1543V43.4727C219.652 43.9056 221.395 44.3158 223.354 44.7031C225.041 45.0221 227.069 45.3298 229.438 45.626C231.808 45.9222 234.486 46.1159 237.471 46.207V9.77148C234.486 9.86263 231.808 10.0563 229.438 10.3525C227.069 10.6488 225.041 10.9564 223.354 11.2754C221.395 11.6628 219.652 12.0729 218.125 12.5059V3.82422C222.432 3.09505 226.545 2.60514 230.464 2.35449C234.383 2.10384 238.063 1.97852 241.504 1.97852ZM299.541 1.97852C303.05 1.97852 306.764 2.10384 310.684 2.35449C314.626 2.60514 318.727 3.09505 322.988 3.82422V12.5059C321.074 11.959 319.137 11.5146 317.178 11.1729C315.218 10.8083 313.247 10.5234 311.265 10.3184C309.305 10.1133 307.345 9.96517 305.386 9.87402C303.426 9.78288 301.478 9.72591 299.541 9.70312C298.607 9.70312 297.57 9.72591 296.431 9.77148C295.314 9.79427 294.118 9.83984 292.842 9.9082C291.589 9.97656 290.267 10.0791 288.877 10.2158C287.487 10.3525 286.074 10.5234 284.639 10.7285V23.1699H314.512V31.5781H284.639V45.3184C286.849 45.6374 289.15 45.8766 291.543 46.0361C293.936 46.1956 296.602 46.2754 299.541 46.2754C303.506 46.2754 307.448 46.0817 311.367 45.6943C315.286 45.307 319.16 44.5664 322.988 43.4727V52.1543C318.727 52.8835 314.637 53.3734 310.718 53.624C306.799 53.8747 303.118 54 299.678 54C296.169 54 292.443 53.8747 288.501 53.624C284.582 53.3734 280.469 52.8835 276.162 52.1543V3.82422C280.469 3.09505 284.582 2.60514 288.501 2.35449C292.42 2.10384 296.1 1.97852 299.541 1.97852ZM353.271 1.91016C356.781 1.91016 360.085 2.21777 363.184 2.83301C366.283 3.44824 368.994 4.30273 371.318 5.39648C373.643 6.49023 375.477 7.81185 376.821 9.36133C378.166 10.888 378.838 12.5742 378.838 14.4199V41.627C378.838 43.4727 378.166 45.1702 376.821 46.7197C375.477 48.2464 373.643 49.5566 371.318 50.6504C368.994 51.7441 366.283 52.5986 363.184 53.2139C360.085 53.8291 356.781 54.1367 353.271 54.1367C351.312 54.1367 349.307 54.0684 347.256 53.9316C345.205 53.7721 343.211 53.5785 341.274 53.3506C339.36 53.0999 337.56 52.8151 335.874 52.4961C334.188 52.1771 332.741 51.8353 331.533 51.4707V4.57617C332.741 4.21159 334.188 3.86979 335.874 3.55078C337.56 3.23177 339.36 2.95833 341.274 2.73047C343.211 2.47982 345.205 2.28613 347.256 2.14941C349.307 1.98991 351.312 1.91016 353.271 1.91016ZM353.408 9.63477C351.335 9.63477 349.535 9.70312 348.008 9.83984C346.481 9.95378 345.171 10.1133 344.077 10.3184C342.983 10.5007 342.072 10.7057 341.343 10.9336C340.636 11.1387 340.055 11.321 339.6 11.4805V44.5664C340.055 44.7487 340.636 44.9424 341.343 45.1475C342.072 45.3525 342.983 45.5576 344.077 45.7627C345.171 45.945 346.481 46.1045 348.008 46.2412C349.535 46.3551 351.335 46.4121 353.408 46.4121C355.96 46.4121 358.25 46.207 360.278 45.7969C362.329 45.3867 364.049 44.8398 365.439 44.1562C366.852 43.4727 367.935 42.6865 368.687 41.7979C369.438 40.8864 369.814 39.9408 369.814 38.9609V17.0859C369.814 16.1061 369.438 15.1719 368.687 14.2832C367.935 13.3717 366.852 12.5742 365.439 11.8906C364.049 11.207 362.329 10.6602 360.278 10.25C358.25 9.83984 355.96 9.63477 353.408 9.63477Z" fill="white"/>
</svg>
