<svg width="663" height="217" viewBox="0 0 663 217" fill="none" xmlns="http://www.w3.org/2000/svg">
    <path d="M24.2023 127.376H186.619C193.023 127.376 198.221 131.717 198.221 137.065V180.668C198.221 186.021 193.023 190.357 186.619 190.357H24.2023C17.7986 190.357 12.6011 186.021 12.6011 180.668V137.065C12.6011 131.717 17.7986 127.376 24.2023 127.376Z" fill="#0D7A7C"/>
    <path d="M105.41 12.488C111.418 12.488 116.467 16.3455 118.373 21.6948H128.427C128.427 11.5258 118.124 3.28125 105.41 3.28125C92.7001 3.28125 82.3933 11.5258 82.3933 21.6948H92.4471C94.3526 16.3455 99.4074 12.488 105.41 12.488Z" fill="#332A23"/>
    <path d="M63.1374 21.695H147.682C167.683 21.695 183.916 39.4847 183.916 61.4195V193.834C183.916 201.149 178.505 207.075 171.838 207.075H38.9817C32.3146 207.075 26.9038 201.149 26.9038 193.834V61.4191C26.9038 39.4847 43.1243 21.695 63.1374 21.695Z" fill="#065654"/>
    <path d="M45.0207 21.695H165.799C179.139 21.695 189.955 34.7753 189.955 50.9088V80.1226C189.955 96.2561 179.139 109.344 165.799 109.344H45.0207C31.6808 109.344 20.865 96.2561 20.865 80.1226V50.9088C20.8654 34.7753 31.6808 21.695 45.0207 21.695Z" fill="#0D7A7C"/>
    <path d="M57.0981 148.512C57.0981 148.512 61.7542 160.59 66.3439 160.59C70.8068 160.59 75.2152 148.512 75.2152 148.512V21.695H57.0986L57.0981 148.512ZM135.604 21.695V148.512C135.604 148.512 140.26 160.59 144.85 160.59C149.313 160.59 153.721 148.512 153.721 148.512V21.695H135.604Z" fill="#F2A74E"/>
    <path d="M60.1179 136.434H72.1957C77.1984 136.434 81.254 132.379 81.254 127.376C81.254 122.373 77.1984 118.318 72.1957 118.318H60.1179C55.1152 118.318 51.0596 122.373 51.0596 127.376C51.0596 132.379 55.1152 136.434 60.1179 136.434ZM129.566 127.376C129.566 132.378 133.621 136.434 138.624 136.434H150.702C155.704 136.434 159.76 132.378 159.76 127.376C159.76 122.373 155.704 118.317 150.702 118.317H138.624C133.621 118.317 129.566 122.373 129.566 127.376Z" fill="#332A23"/>
    <path d="M120.107 60.6224L110.309 50.8287C107.603 48.1225 103.221 48.1225 100.515 50.8287L90.713 60.6224C88.0068 63.3286 88.0068 67.7144 90.713 70.4206L100.515 80.2102C103.222 82.9164 107.599 82.9164 110.309 80.2102L120.107 70.4206C122.813 67.714 122.813 63.3282 120.107 60.6224ZM101.311 67.7017C101.311 68.2571 101.09 68.7898 100.697 69.1826C100.305 69.5754 99.7718 69.7961 99.2164 69.7963C98.6611 69.7955 98.1288 69.5745 97.7362 69.1819C97.3435 68.7892 97.1226 68.2569 97.1217 67.7017V63.5128C97.1226 62.9575 97.3435 62.4252 97.7362 62.0326C98.1288 61.6399 98.6611 61.4189 99.2164 61.4181C99.7718 61.4183 100.305 61.6391 100.697 62.0318C101.09 62.4246 101.311 62.9573 101.311 63.5128V67.7017ZM113.878 67.7017C113.878 68.2571 113.657 68.7898 113.264 69.1826C112.872 69.5754 112.339 69.7961 111.784 69.7963C111.228 69.7955 110.696 69.5745 110.303 69.1819C109.911 68.7892 109.69 68.2569 109.689 67.7017V63.5128C109.69 62.9575 109.911 62.4252 110.303 62.0326C110.696 61.6399 111.228 61.4189 111.784 61.4181C112.339 61.4183 112.872 61.6391 113.264 62.0318C113.657 62.4246 113.878 62.9573 113.878 63.5128V67.7017Z" fill="#D7F4F7"/>
    <path d="M246.406 155.312C249.01 155.312 251.667 155.443 254.375 155.703C257.109 155.938 259.766 156.367 262.344 156.992C264.922 157.591 267.344 158.438 269.609 159.531C271.875 160.599 273.854 161.966 275.547 163.633C277.266 165.273 278.62 167.253 279.609 169.57C280.599 171.862 281.094 174.557 281.094 177.656C281.094 180.807 280.664 183.581 279.805 185.977C278.971 188.372 277.786 190.456 276.25 192.227C274.74 193.997 272.93 195.482 270.82 196.68C268.737 197.852 266.445 198.802 263.945 199.531C261.445 200.234 258.789 200.742 255.977 201.055C253.164 201.341 250.286 201.484 247.344 201.484C245.495 201.484 243.659 201.432 241.836 201.328C240.013 201.224 238.177 201.094 236.328 200.938V214.922H226.641V157.578C227.214 157.396 228.125 157.174 229.375 156.914C230.651 156.654 232.148 156.406 233.867 156.172C235.612 155.938 237.552 155.742 239.688 155.586C241.823 155.404 244.062 155.312 246.406 155.312ZM249.219 163.906C247.5 163.906 245.859 163.984 244.297 164.141C242.734 164.271 241.367 164.427 240.195 164.609C238.789 164.818 237.5 165.052 236.328 165.312V192.031C237.161 192.214 238.086 192.37 239.102 192.5C239.961 192.63 240.964 192.747 242.109 192.852C243.255 192.93 244.479 192.969 245.781 192.969C247.474 192.969 249.258 192.93 251.133 192.852C253.034 192.747 254.909 192.526 256.758 192.188C258.633 191.849 260.404 191.354 262.07 190.703C263.763 190.026 265.247 189.141 266.523 188.047C267.826 186.927 268.854 185.547 269.609 183.906C270.391 182.266 270.781 180.286 270.781 177.969C270.781 176.042 270.469 174.349 269.844 172.891C269.219 171.432 268.372 170.182 267.305 169.141C266.237 168.099 264.987 167.24 263.555 166.562C262.148 165.885 260.638 165.352 259.023 164.961C257.435 164.57 255.794 164.297 254.102 164.141C252.435 163.984 250.807 163.906 249.219 163.906ZM304.453 164.609C302.917 164.74 301.51 164.883 300.234 165.039C298.958 165.169 297.734 165.312 296.562 165.469V205C298.281 205.234 300.182 205.443 302.266 205.625C304.349 205.807 306.615 205.938 309.062 206.016C309.844 206.068 310.612 206.094 311.367 206.094C312.122 206.094 312.891 206.094 313.672 206.094C314.453 206.094 315.234 206.094 316.016 206.094C316.797 206.094 317.578 206.068 318.359 206.016C321.276 205.938 323.867 205.794 326.133 205.586C328.424 205.352 330.495 205.052 332.344 204.688C332.812 202.109 333.203 198.984 333.516 195.312H342.422C342.266 198.099 342.044 200.951 341.758 203.867C341.471 206.758 341.068 209.74 340.547 212.812C335.599 213.646 330.885 214.206 326.406 214.492C321.953 214.779 317.76 214.922 313.828 214.922C309.792 214.922 305.521 214.779 301.016 214.492C296.51 214.206 291.823 213.646 286.953 212.812V157.578C290.052 157.031 293.047 156.628 295.938 156.367C298.854 156.081 301.693 155.859 304.453 155.703V164.609ZM376.016 153.984C377.63 153.984 379.271 154.154 380.938 154.492C382.604 154.805 384.089 155.234 385.391 155.781C387.682 159.792 389.766 163.88 391.641 168.047C393.542 172.188 395.234 176.458 396.719 180.859C397.734 180.99 398.763 181.133 399.805 181.289C400.846 181.419 401.901 181.562 402.969 181.719V191.719L399.609 190.781C400.547 194.661 401.341 198.62 401.992 202.656C402.643 206.693 403.125 210.807 403.438 215H394.141C393.75 210.521 393.099 206.094 392.188 201.719C391.276 197.344 390.234 193.151 389.062 189.141C386.536 188.932 384.128 188.776 381.836 188.672C379.57 188.568 377.63 188.516 376.016 188.516C373.854 188.516 371.706 188.555 369.57 188.633C367.435 188.711 365.286 188.854 363.125 189.062C361.953 193.073 360.898 197.266 359.961 201.641C359.049 206.016 358.411 210.469 358.047 215H348.75C349.036 210.807 349.492 206.706 350.117 202.695C350.768 198.685 351.562 194.74 352.5 190.859L349.453 191.719V181.719L355.469 180.859C356.927 176.458 358.594 172.188 360.469 168.047C362.37 163.88 364.479 159.792 366.797 155.781C368.099 155.234 369.57 154.805 371.211 154.492C372.852 154.154 374.453 153.984 376.016 153.984ZM376.016 179.688C377.578 179.688 379.193 179.714 380.859 179.766C382.526 179.792 384.245 179.87 386.016 180C384.688 176.38 383.372 173.242 382.07 170.586C380.794 167.904 379.688 165.833 378.75 164.375C378.281 164.167 377.839 164.023 377.422 163.945C377.005 163.867 376.536 163.828 376.016 163.828C375.182 163.828 374.323 164.01 373.438 164.375C372.5 165.833 371.38 167.904 370.078 170.586C368.776 173.242 367.474 176.38 366.172 180C367.891 179.87 369.57 179.792 371.211 179.766C372.878 179.714 374.479 179.688 376.016 179.688ZM427.031 155.938C426.719 158.281 426.562 160.729 426.562 163.281C426.562 166.745 426.81 170.299 427.305 173.945C427.799 177.591 428.555 181.12 429.57 184.531C430.586 187.943 431.862 191.133 433.398 194.102C434.961 197.07 436.797 199.583 438.906 201.641C441.068 199.271 442.917 196.589 444.453 193.594C446.016 190.599 447.292 187.461 448.281 184.18C449.271 180.898 450 177.539 450.469 174.102C450.938 170.638 451.172 167.24 451.172 163.906C451.172 162.5 451.133 161.133 451.055 159.805C451.003 158.477 450.911 157.161 450.781 155.859C453.047 155.964 455.078 156.12 456.875 156.328C458.698 156.536 460.26 156.745 461.562 156.953C463.073 157.214 464.427 157.474 465.625 157.734V167.578C464.792 167.292 463.971 167.07 463.164 166.914C462.357 166.732 461.536 166.536 460.703 166.328C460.703 171.927 460.156 177.122 459.062 181.914C457.995 186.68 456.497 191.133 454.57 195.273C452.643 199.414 450.339 203.255 447.656 206.797C445 210.339 442.083 213.646 438.906 216.719C435.703 213.646 432.773 210.339 430.117 206.797C427.487 203.255 425.234 199.414 423.359 195.273C421.484 191.133 420.026 186.68 418.984 181.914C417.943 177.122 417.422 171.927 417.422 166.328C416.484 166.536 415.586 166.732 414.727 166.914C413.867 167.07 413.021 167.292 412.188 167.578V157.656C412.188 157.682 412.526 157.63 413.203 157.5C413.906 157.37 414.896 157.214 416.172 157.031C417.474 156.823 419.036 156.628 420.859 156.445C422.682 156.237 424.74 156.068 427.031 155.938ZM501.719 155.547C505.755 155.547 510.013 155.69 514.492 155.977C518.971 156.263 523.646 156.823 528.516 157.656V167.578C526.771 167.083 524.779 166.615 522.539 166.172C520.612 165.807 518.294 165.456 515.586 165.117C512.878 164.779 509.818 164.557 506.406 164.453V206.094C509.818 205.99 512.878 205.768 515.586 205.43C518.294 205.091 520.612 204.74 522.539 204.375C524.779 203.932 526.771 203.464 528.516 202.969V212.891C523.646 213.724 518.971 214.284 514.492 214.57C510.013 214.857 505.755 215 501.719 215C497.786 215 493.581 214.857 489.102 214.57C484.622 214.284 479.922 213.724 475 212.891V202.969C476.745 203.464 478.737 203.932 480.977 204.375C482.904 204.74 485.221 205.091 487.93 205.43C490.638 205.768 493.698 205.99 497.109 206.094V164.453C493.698 164.557 490.638 164.779 487.93 165.117C485.221 165.456 482.904 165.807 480.977 166.172C478.737 166.615 476.745 167.083 475 167.578V157.656C479.922 156.823 484.622 156.263 489.102 155.977C493.581 155.69 497.786 155.547 501.719 155.547ZM568.047 155.547C572.057 155.547 576.302 155.69 580.781 155.977C585.286 156.263 589.974 156.823 594.844 157.656V167.578C592.656 166.953 590.443 166.445 588.203 166.055C585.964 165.638 583.711 165.312 581.445 165.078C579.206 164.844 576.966 164.674 574.727 164.57C572.487 164.466 570.26 164.401 568.047 164.375C566.979 164.375 565.794 164.401 564.492 164.453C563.216 164.479 561.849 164.531 560.391 164.609C558.958 164.688 557.448 164.805 555.859 164.961C554.271 165.117 552.656 165.312 551.016 165.547V179.766H585.156V189.375H551.016V205.078C553.542 205.443 556.172 205.716 558.906 205.898C561.641 206.081 564.688 206.172 568.047 206.172C572.578 206.172 577.083 205.951 581.562 205.508C586.042 205.065 590.469 204.219 594.844 202.969V212.891C589.974 213.724 585.299 214.284 580.82 214.57C576.341 214.857 572.135 215 568.203 215C564.193 215 559.935 214.857 555.43 214.57C550.951 214.284 546.25 213.724 541.328 212.891V157.656C546.25 156.823 550.951 156.263 555.43 155.977C559.909 155.69 564.115 155.547 568.047 155.547ZM629.453 155.469C633.464 155.469 637.24 155.82 640.781 156.523C644.323 157.227 647.422 158.203 650.078 159.453C652.734 160.703 654.831 162.214 656.367 163.984C657.904 165.729 658.672 167.656 658.672 169.766V200.859C658.672 202.969 657.904 204.909 656.367 206.68C654.831 208.424 652.734 209.922 650.078 211.172C647.422 212.422 644.323 213.398 640.781 214.102C637.24 214.805 633.464 215.156 629.453 215.156C627.214 215.156 624.922 215.078 622.578 214.922C620.234 214.74 617.956 214.518 615.742 214.258C613.555 213.971 611.497 213.646 609.57 213.281C607.643 212.917 605.99 212.526 604.609 212.109V158.516C605.99 158.099 607.643 157.708 609.57 157.344C611.497 156.979 613.555 156.667 615.742 156.406C617.956 156.12 620.234 155.898 622.578 155.742C624.922 155.56 627.214 155.469 629.453 155.469ZM629.609 164.297C627.24 164.297 625.182 164.375 623.438 164.531C621.693 164.661 620.195 164.844 618.945 165.078C617.695 165.286 616.654 165.521 615.82 165.781C615.013 166.016 614.349 166.224 613.828 166.406V204.219C614.349 204.427 615.013 204.648 615.82 204.883C616.654 205.117 617.695 205.352 618.945 205.586C620.195 205.794 621.693 205.977 623.438 206.133C625.182 206.263 627.24 206.328 629.609 206.328C632.526 206.328 635.143 206.094 637.461 205.625C639.805 205.156 641.771 204.531 643.359 203.75C644.974 202.969 646.211 202.07 647.07 201.055C647.93 200.013 648.359 198.932 648.359 197.812V172.812C648.359 171.693 647.93 170.625 647.07 169.609C646.211 168.568 644.974 167.656 643.359 166.875C641.771 166.094 639.805 165.469 637.461 165C635.143 164.531 632.526 164.297 629.609 164.297Z" fill="#0D7A7C"/>
</svg>
